<?xml version="1.0" encoding="utf-8"?>
<!-- Generator: Adobe Illustrator 27.8.1, SVG Export Plug-In . SVG Version: 6.00 Build 0)  -->
<svg version="1.1" width="96" height="96" id="Calque_1" xmlns="http://www.w3.org/2000/svg" xmlns:xlink="http://www.w3.org/1999/xlink" x="0px" y="0px"
	 viewBox="0 0 96 96" style="enable-background:new 0 0 96 96;" xml:space="preserve">
<style type="text/css">
	.st0{fill:url(#SVGID_1_);}
	.st1{fill:url(#SVGID_00000107557115911622465780000010263646476867385261_);}
	.st2{fill-rule:evenodd;clip-rule:evenodd;fill:url(#SVGID_00000111153879465587046130000007392510321784969614_);}
	.st3{fill-rule:evenodd;clip-rule:evenodd;fill:url(#SVGID_00000071556570909941437020000015885005775507768248_);}
	.st4{opacity:0.6;fill:url(#SVGID_00000014636408503390846950000012028822996475308701_);enable-background:new    ;}
	.st5{opacity:0.6;fill:url(#SVGID_00000078746881479482328140000007472751985580030371_);enable-background:new    ;}
	.st6{opacity:0.6;fill:url(#SVGID_00000093878607011778002950000008435201291807211939_);enable-background:new    ;}
	.st7{opacity:0.6;fill:url(#SVGID_00000167369273198005002010000007158451924970008235_);enable-background:new    ;}
	.st8{opacity:0.6;fill:url(#SVGID_00000139278716186658391950000002142174547399955867_);enable-background:new    ;}
	.st9{opacity:0.6;fill:url(#SVGID_00000049206480180778878130000005551607385040266909_);enable-background:new    ;}
	.st10{opacity:0.2;fill:url(#SVGID_00000002349852835461686470000011493749539758245536_);enable-background:new    ;}
	.st11{opacity:0.2;fill:url(#SVGID_00000109015631292459531660000006717427739893414835_);enable-background:new    ;}
	.st12{opacity:0.3;fill:url(#SVGID_00000007406287097698450180000005432930639776967356_);enable-background:new    ;}
	.st13{opacity:0.2;fill:url(#SVGID_00000033368357476804864350000015449983616317241762_);enable-background:new    ;}
	.st14{opacity:0.2;fill:url(#SVGID_00000167391049972831979580000011461211936702608810_);enable-background:new    ;}
	.st15{opacity:0.2;fill:url(#SVGID_00000170254710882776430850000008441532240445041558_);enable-background:new    ;}
	.st16{opacity:0.2;fill:url(#SVGID_00000173869164737414996520000017075548432862946705_);enable-background:new    ;}
	.st17{opacity:0.6;fill:url(#SVGID_00000154387671195391144610000015362217272352560302_);enable-background:new    ;}
	.st18{opacity:0.2;fill:url(#SVGID_00000155833531908063660250000010573148746941552052_);enable-background:new    ;}
	.st19{fill:url(#SVGID_00000062191129506409857370000011615666335622898567_);}
	.st20{fill:url(#SVGID_00000049940013089153568890000017169828335137088932_);}
	.st21{fill-rule:evenodd;clip-rule:evenodd;fill:url(#SVGID_00000079477720054697615090000010603417965128574607_);}
	.st22{opacity:0.4;fill:url(#SVGID_00000025412368277760749230000011580849463650214075_);enable-background:new    ;}
	.st23{opacity:0.4;fill:url(#SVGID_00000181056026313116985920000006888041839706008489_);enable-background:new    ;}
	.st24{opacity:0.4;fill:url(#SVGID_00000173128250424655964740000011316915926178957233_);enable-background:new    ;}
	.st25{opacity:0.4;fill:url(#SVGID_00000108297516208868363680000013007691624390173114_);enable-background:new    ;}
	.st26{opacity:0.4;fill:url(#SVGID_00000142860535362698558450000014135220221434647205_);enable-background:new    ;}
	.st27{opacity:0.4;fill:url(#SVGID_00000173136571812520514700000006918010645202763442_);enable-background:new    ;}
	.st28{opacity:0.4;fill:url(#SVGID_00000129181569030338946280000004502276273326705325_);enable-background:new    ;}
	.st29{opacity:0.4;fill:url(#SVGID_00000140713030299942030660000010973919882735189124_);enable-background:new    ;}
	.st30{opacity:0.4;fill:url(#SVGID_00000004537949638820178480000012680576564758502071_);enable-background:new    ;}
	.st31{fill-rule:evenodd;clip-rule:evenodd;fill:url(#SVGID_00000134956287938433579730000015963559363082485137_);}
</style>
<radialGradient id="SVGID_1_" cx="-400.6141" cy="338.5668" r="1" gradientTransform="matrix(0 -8.702 -48.2567 0 16386.1172 -3399.5437)" gradientUnits="userSpaceOnUse">
	<stop  offset="0.286" style="stop-color:#7D2889"/>
	<stop  offset="0.724" style="stop-color:#FF66D9;stop-opacity:0.41"/>
	<stop  offset="1" style="stop-color:#FFFFFF;stop-opacity:0"/>
</radialGradient>
<path class="st0" d="M48,95.2c26.5,0,48-3.9,48-8.7c0-4.8-21.5-8.7-48-8.7S0,81.8,0,86.6S21.5,95.2,48,95.2z"/>
<radialGradient id="SVGID_00000122700783498348459990000012347652064811841193_" cx="-378.4898" cy="338.5668" r="1" gradientTransform="matrix(0 -38.3681 -48.2567 0 16386.1172 -14482.7783)" gradientUnits="userSpaceOnUse">
	<stop  offset="0" style="stop-color:#FFCA45"/>
	<stop  offset="0.453" style="stop-color:#FF66D9;stop-opacity:0.36"/>
	<stop  offset="1" style="stop-color:#FFFFFF;stop-opacity:0"/>
</radialGradient>
<path style="fill:url(#SVGID_00000122700783498348459990000012347652064811841193_);" d="M48,77.1C74.5,77.1,96,60,96,39
	C96,17.9,74.5,0.8,48,0.8S0,17.9,0,39S21.5,77.1,48,77.1L48,77.1z"/>
<radialGradient id="SVGID_00000079470910724013746090000018166525644707566980_" cx="-381.849" cy="352.868" r="1" gradientTransform="matrix(-37.7705 0 0 37.7705 -14375.8057 -13248.5264)" gradientUnits="userSpaceOnUse">
	<stop  offset="0.432" style="stop-color:#FF8B54"/>
	<stop  offset="0.76" style="stop-color:#FFBB8D"/>
	<stop  offset="1" style="stop-color:#F9DDD1"/>
</radialGradient>
<path style="fill-rule:evenodd;clip-rule:evenodd;fill:url(#SVGID_00000079470910724013746090000018166525644707566980_);" d="
	M75.4,75.6c0.5-1.2-0.1-2.6-1.3-3.1s-2.6,0.1-3.1,1.3s0.1,2.6,1.3,3.1c0.1,0,0.2,0.1,0.2,0.1c-0.1,0.2-0.1,0.3-0.1,0.5
	c-1.5,0.9-2,2.8-1.2,4.3c0.9,1.5,2.8,2,4.3,1.2c0,0,0,0,0,0c0.2,1.7,1.8,3,3.5,2.8c0.5-0.1,1-0.2,1.4-0.5c0.6,1.2,2,1.7,3.1,1.1
	c1.2-0.6,1.7-2,1.1-3.1c-0.1-0.3-0.3-0.6-0.6-0.8c1.2-1.3,1.1-3.3-0.2-4.4c-1.2-1.1-3-1.1-4.2,0c-0.7-0.8-1.7-1-2.7-0.7
	C76.8,76.5,76.2,75.8,75.4,75.6z M24.4,77.1c0,0.3,0,0.6-0.1,0.9c2.3,0.6,3.7,2.9,3.1,5.2c-0.6,2.3-2.9,3.7-5.2,3.1
	c-0.4-0.1-0.8-0.3-1.2-0.5c-0.5,0.4-1.1,0.6-1.7,0.6c-0.5,0-0.9-0.1-1.4-0.4c-0.4,1-1.6,1.4-2.6,1c-0.6-0.3-1.1-0.9-1.1-1.5
	c-1.2,0.4-2.6-0.2-3-1.4c-0.4-1.2,0.2-2.6,1.4-3c0.5-0.2,1.1-0.2,1.6,0c-0.1-1.7,1.3-3.2,3-3.3c0.4,0,0.7,0,1.1,0.1
	c-0.5-1.7,0.4-3.4,2.1-3.9c1.7-0.5,3.4,0.4,3.9,2.1C24.3,76.5,24.4,76.8,24.4,77.1L24.4,77.1z"/>
<radialGradient id="SVGID_00000027578851087957431990000018203906257672784820_" cx="-395.4397" cy="333.1107" r="1" gradientTransform="matrix(0 -10.623 -28.257 0 9460.3164 -4172.8223)" gradientUnits="userSpaceOnUse">
	<stop  offset="0.302" style="stop-color:#F9DDD1"/>
	<stop  offset="0.674" style="stop-color:#FFBB8D"/>
	<stop  offset="1" style="stop-color:#FF8B54"/>
</radialGradient>
<path style="fill-rule:evenodd;clip-rule:evenodd;fill:url(#SVGID_00000027578851087957431990000018203906257672784820_);" d="
	M51.9,20.5c0,0.4-0.1,0.8-0.2,1.1c0.2,0.1,0.5,0.3,0.7,0.4c0.6-1.1,1.9-1.7,3.1-1.5c0.9-1.5,2.8-2.1,4.3-1.2c1,0.6,1.6,1.7,1.6,2.8
	c0.8,0.2,1.5,0.8,2,1.5c0.8,0.1,1.5,0.5,2,1.1c2-0.9,4.3,0.1,5.2,2.1c0.5,1.2,0.4,2.6-0.3,3.7c0.6,0.4,1,0.9,1.2,1.6
	c1-1.4,3-1.7,4.4-0.7c1.3,1,1.7,2.7,0.9,4.1c1.7,0.2,3,1.8,2.8,3.5c-0.2,1.7-1.8,3-3.5,2.8c-1-0.1-1.9-0.7-2.4-1.6H24.4v-1.2
	c-1.5,0.9-3.4,0.4-4.3-1.2c-0.5-0.9-0.6-2.1,0-3.1c-1.3-1.1-1.6-3.1-0.5-4.4c1-1.2,2.6-1.5,3.9-0.8c0.6-0.7,1.5-1.2,2.4-1.2
	c0-1.7,1.4-3.1,3.1-3.1c0.1,0,0.3,0,0.4,0c0.6-1.1,1.9-1.7,3.2-1.6c-0.9-1.5-0.4-3.4,1.1-4.3c1.2-0.7,2.7-0.6,3.7,0.4
	c1.4-0.1,2.8,0.7,3.2,2.1c0.4-0.3,0.9-0.5,1.4-0.5c0.7-1.3,2.2-1.9,3.6-1.5c0.4-1.7,2-2.8,3.7-2.4C50.9,17.7,51.9,19,51.9,20.5
	L51.9,20.5z"/>
<radialGradient id="SVGID_00000054953778032331282290000000602797774904785288_" cx="-336.609" cy="399.1491" r="0.9999" gradientTransform="matrix(4.308111e-16 7.0357 7.0357 -4.308111e-16 -2762.2522 2398.2209)" gradientUnits="userSpaceOnUse">
	<stop  offset="0.375" style="stop-color:#FFF4EB"/>
	<stop  offset="1" style="stop-color:#FFF3EB;stop-opacity:0"/>
</radialGradient>
<path style="opacity:0.6;fill:url(#SVGID_00000054953778032331282290000000602797774904785288_);enable-background:new    ;" d="
	M46,37c4.1,0,7.5-3.3,7.5-7.5S50.2,22,46,22l0,0c-4.1,0-7.5,3.3-7.5,7.5S41.9,37,46,37L46,37L46,37z"/>
<radialGradient id="SVGID_00000163789029584880562820000017530086235654265763_" cx="-320.2747" cy="423.5521" r="0.9999" gradientTransform="matrix(2.947658e-16 4.8139 4.8139 -2.947658e-16 -1995.2606 1569.2151)" gradientUnits="userSpaceOnUse">
	<stop  offset="0.375" style="stop-color:#FFF4EB"/>
	<stop  offset="1" style="stop-color:#FFF3EB;stop-opacity:0"/>
</radialGradient>
<path style="opacity:0.6;fill:url(#SVGID_00000163789029584880562820000017530086235654265763_);enable-background:new    ;" d="
	M43.7,32.3c2.8,0,5.1-2.3,5.1-5.1S46.5,22,43.7,22c0,0,0,0,0,0c-2.8,0-5.1,2.3-5.1,5.1C38.6,30,40.8,32.3,43.7,32.3z"/>
<radialGradient id="SVGID_00000084490937473954667130000016198370686629297082_" cx="-320.2747" cy="423.5521" r="0.9999" gradientTransform="matrix(2.947658e-16 4.8139 4.8139 -2.947658e-16 -1996.8346 1573.149)" gradientUnits="userSpaceOnUse">
	<stop  offset="0.375" style="stop-color:#FFF4EB"/>
	<stop  offset="1" style="stop-color:#FFF3EB;stop-opacity:0"/>
</radialGradient>
<path style="opacity:0.6;fill:url(#SVGID_00000084490937473954667130000016198370686629297082_);enable-background:new    ;" d="
	M42.1,36.2c2.8,0,5.1-2.3,5.1-5.1S44.9,26,42.1,26c0,0,0,0,0,0c-2.8,0-5.1,2.3-5.1,5.1C37,33.9,39.3,36.2,42.1,36.2z"/>
<radialGradient id="SVGID_00000000928854308593556880000014964734532469838011_" cx="-320.2747" cy="423.5523" r="0.9998" gradientTransform="matrix(2.947658e-16 4.8139 4.8139 -2.947658e-16 -2011.7856 1575.5101)" gradientUnits="userSpaceOnUse">
	<stop  offset="0.375" style="stop-color:#FFF4EB"/>
	<stop  offset="1" style="stop-color:#FFF3EB;stop-opacity:0"/>
</radialGradient>
<path style="opacity:0.6;fill:url(#SVGID_00000000928854308593556880000014964734532469838011_);enable-background:new    ;" d="
	M27.1,38.6c2.8,0,5.1-2.3,5.1-5.1c0-2.8-2.3-5.1-5.1-5.1c0,0,0,0,0,0c-2.8,0-5.1,2.3-5.1,5.1C22,36.3,24.3,38.6,27.1,38.6z"/>
<radialGradient id="SVGID_00000004543464463623135900000004293536669511531913_" cx="-320.2747" cy="423.5521" r="0.9999" gradientTransform="matrix(2.947658e-16 4.8139 4.8139 -2.947658e-16 -2008.6376 1573.1501)" gradientUnits="userSpaceOnUse">
	<stop  offset="0.375" style="stop-color:#FFF4EB"/>
	<stop  offset="1" style="stop-color:#FFF3EB;stop-opacity:0"/>
</radialGradient>
<path style="opacity:0.6;fill:url(#SVGID_00000004543464463623135900000004293536669511531913_);enable-background:new    ;" d="
	M30.3,36.2c2.8,0,5.1-2.3,5.1-5.1c0-2.8-2.3-5.1-5.1-5.1c0,0,0,0,0,0c-2.8,0-5.1,2.3-5.1,5.1C25.2,33.9,27.5,36.2,30.3,36.2z"/>
<radialGradient id="SVGID_00000133524088295129974220000004378283225443643325_" cx="-275.9385" cy="489.7896" r="0.9998" gradientTransform="matrix(1.587197e-16 2.5921 2.5921 -1.587197e-16 -1239.2825 750.4365)" gradientUnits="userSpaceOnUse">
	<stop  offset="0.375" style="stop-color:#FFF4EB"/>
	<stop  offset="1" style="stop-color:#FFF3EB;stop-opacity:0"/>
</radialGradient>
<path style="opacity:0.6;fill:url(#SVGID_00000133524088295129974220000004378283225443643325_);enable-background:new    ;" d="
	M30.3,37.8c1.5,0,2.8-1.2,2.8-2.8c0-1.5-1.2-2.8-2.8-2.8c0,0,0,0,0,0c-1.5,0-2.8,1.2-2.8,2.8C27.5,36.5,28.8,37.8,30.3,37.8z"/>
<radialGradient id="SVGID_00000115508851440202471620000000990209700460880802_" cx="-275.9385" cy="489.7892" r="1" gradientTransform="matrix(1.587197e-16 2.5921 2.5921 -1.587197e-16 -1196.0024 748.8624)" gradientUnits="userSpaceOnUse">
	<stop  offset="0.375" style="stop-color:#FFF4EB"/>
	<stop  offset="1" style="stop-color:#FFF3EB;stop-opacity:0"/>
</radialGradient>
<path style="opacity:0.2;fill:url(#SVGID_00000115508851440202471620000000990209700460880802_);enable-background:new    ;" d="
	M73.6,36.2c1.5,0,2.8-1.2,2.8-2.8c0-1.5-1.2-2.8-2.8-2.8c0,0,0,0,0,0c-1.5,0-2.8,1.2-2.8,2.8C70.8,35,72.1,36.2,73.6,36.2z"/>
<radialGradient id="SVGID_00000145024239167094553110000004355102994307240336_" cx="-237.5137" cy="547.1959" r="0.9995" gradientTransform="matrix(1.133711e-16 1.8515 1.8515 -1.133711e-16 -936.4048 477.2473)" gradientUnits="userSpaceOnUse">
	<stop  offset="0.375" style="stop-color:#FFF4EB"/>
	<stop  offset="1" style="stop-color:#FFF3EB;stop-opacity:0"/>
</radialGradient>
<path style="opacity:0.2;fill:url(#SVGID_00000145024239167094553110000004355102994307240336_);enable-background:new    ;" d="
	M76.7,39.3c1.1,0,2-0.9,2-2c0-1.1-0.9-2-2-2c0,0,0,0,0,0c-1.1,0-2,0.9-2,2C74.8,38.5,75.6,39.3,76.7,39.3z"/>
<radialGradient id="SVGID_00000173139782836557621170000010714922419950086074_" cx="-297.2856" cy="457.8974" r="0.9998" gradientTransform="matrix(2.040684e-16 3.3327 3.3327 -2.040684e-16 -1453.2432 1027.5587)" gradientUnits="userSpaceOnUse">
	<stop  offset="0.375" style="stop-color:#FFF4EB"/>
	<stop  offset="1" style="stop-color:#FFF3EB;stop-opacity:0"/>
</radialGradient>
<path style="opacity:0.3;fill:url(#SVGID_00000173139782836557621170000010714922419950086074_);enable-background:new    ;" d="
	M72.8,40.1c2,0,3.5-1.6,3.5-3.5S74.7,33,72.8,33s-3.5,1.6-3.5,3.5S70.8,40.1,72.8,40.1z"/>
<radialGradient id="SVGID_00000103987689209305538070000002907390606490657700_" cx="-275.9385" cy="489.7899" r="0.9996" gradientTransform="matrix(1.587197e-16 2.5921 2.5921 -1.587197e-16 -1210.9554 737.0594)" gradientUnits="userSpaceOnUse">
	<stop  offset="0.375" style="stop-color:#FFF4EB"/>
	<stop  offset="1" style="stop-color:#FFF3EB;stop-opacity:0"/>
</radialGradient>
<path style="opacity:0.2;fill:url(#SVGID_00000103987689209305538070000002907390606490657700_);enable-background:new    ;" d="
	M58.6,24.4c1.5,0,2.8-1.2,2.8-2.8c0-1.5-1.2-2.8-2.8-2.8c0,0,0,0,0,0c-1.5,0-2.8,1.2-2.8,2.8C55.9,23.2,57.1,24.4,58.6,24.4z"/>
<radialGradient id="SVGID_00000103231569793284871850000004909243447340349887_" cx="-237.5145" cy="547.1932" r="1.0003" gradientTransform="matrix(1.133717e-16 1.8515 1.8515 -1.133717e-16 -964.7353 459.152)" gradientUnits="userSpaceOnUse">
	<stop  offset="0.375" style="stop-color:#FFF4EB"/>
	<stop  offset="1" style="stop-color:#FFF3EB;stop-opacity:0"/>
</radialGradient>
<path style="opacity:0.2;fill:url(#SVGID_00000103231569793284871850000004909243447340349887_);enable-background:new    ;" d="
	M48.4,21.2c1.1,0,2-0.9,2-2c0-1.1-0.9-2-2-2s-2,0.9-2,2C46.4,20.4,47.3,21.2,48.4,21.2z"/>
<radialGradient id="SVGID_00000061453374941407737010000002633880963273014924_" cx="-237.5137" cy="547.1948" r="1" gradientTransform="matrix(1.133711e-16 1.8515 1.8515 -1.133711e-16 -978.1098 461.5103)" gradientUnits="userSpaceOnUse">
	<stop  offset="0.375" style="stop-color:#FFF4EB"/>
	<stop  offset="1" style="stop-color:#FFF3EB;stop-opacity:0"/>
</radialGradient>
<path style="opacity:0.2;fill:url(#SVGID_00000061453374941407737010000002633880963273014924_);enable-background:new    ;" d="
	M35,23.6c1.1,0,2-0.9,2-2c0-1.1-0.9-2-2-2l0,0c-1.1,0-2,0.9-2,2C33,22.7,33.9,23.6,35,23.6z"/>
<radialGradient id="SVGID_00000063597544544184870320000009064044360731486649_" cx="-320.2747" cy="423.5519" r="1" gradientTransform="matrix(2.947658e-16 4.8139 4.8139 -2.947658e-16 -1977.1616 1570.0021)" gradientUnits="userSpaceOnUse">
	<stop  offset="0.375" style="stop-color:#FFF4EB"/>
	<stop  offset="1" style="stop-color:#FFF3EB;stop-opacity:0"/>
</radialGradient>
<path style="opacity:0.2;fill:url(#SVGID_00000063597544544184870320000009064044360731486649_);enable-background:new    ;" d="
	M61.8,33.1c2.8,0,5.1-2.3,5.1-5.1s-2.3-5.1-5.1-5.1c0,0,0,0,0,0c-2.8,0-5.1,2.3-5.1,5.1C56.7,30.8,58.9,33,61.8,33.1z"/>
<radialGradient id="SVGID_00000049944034984848195260000013352331986561163966_" cx="-320.2747" cy="423.552" r="1" gradientTransform="matrix(2.947658e-16 4.8139 4.8139 -2.947658e-16 -1981.8835 1568.4281)" gradientUnits="userSpaceOnUse">
	<stop  offset="0.375" style="stop-color:#FFF4EB"/>
	<stop  offset="1" style="stop-color:#FFF3EB;stop-opacity:0"/>
</radialGradient>
<path style="opacity:0.6;fill:url(#SVGID_00000049944034984848195260000013352331986561163966_);enable-background:new    ;" d="
	M57,31.5c2.8,0,5.1-2.2,5.2-5s-2.2-5.1-5-5.2c0,0-0.1,0-0.1,0c-2.8,0-5.1,2.3-5.1,5.1C51.9,29.2,54.2,31.5,57,31.5L57,31.5z"/>
<radialGradient id="SVGID_00000159438807901878282840000004727758850965995656_" cx="-320.2747" cy="423.5521" r="0.9999" gradientTransform="matrix(2.947658e-16 4.8139 4.8139 -2.947658e-16 -1979.5226 1570.7891)" gradientUnits="userSpaceOnUse">
	<stop  offset="0.375" style="stop-color:#FFF4EB"/>
	<stop  offset="1" style="stop-color:#FFF3EB;stop-opacity:0"/>
</radialGradient>
<path style="opacity:0.2;fill:url(#SVGID_00000159438807901878282840000004727758850965995656_);enable-background:new    ;" d="
	M59.4,33.8c2.8,0,5.1-2.3,5.1-5.1s-2.3-5.1-5.1-5.1c0,0,0,0,0,0c-2.8,0-5.1,2.3-5.1,5.1C54.3,31.5,56.6,33.8,59.4,33.8z"/>
<linearGradient id="SVGID_00000029734607804304158280000006860533070193976222_" gradientUnits="userSpaceOnUse" x1="53.7401" y1="6.0316" x2="27.7011" y2="73.9036" gradientTransform="matrix(1 0 0 -1 0 97.2756)">
	<stop  offset="0" style="stop-color:#E0B1CC"/>
	<stop  offset="0.431" style="stop-color:#FFF1F1"/>
	<stop  offset="1" style="stop-color:#FFC9A5"/>
</linearGradient>
<path style="fill:url(#SVGID_00000029734607804304158280000006860533070193976222_);" d="M18.9,37h44.9l-3.9,51.9H22
	C22,88.9,18.9,37,18.9,37z"/>
<linearGradient id="SVGID_00000161590800988514920380000004160678523815600770_" gradientUnits="userSpaceOnUse" x1="59.803" y1="34.3246" x2="83.41" y2="34.3246" gradientTransform="matrix(1 0 0 -1 0 97.2756)">
	<stop  offset="0" style="stop-color:#D16AE9"/>
	<stop  offset="1" style="stop-color:#FF661D"/>
</linearGradient>
<path style="fill:url(#SVGID_00000161590800988514920380000004160678523815600770_);" d="M71.6,85.8l-11.8,3.1L63.7,37l15,3.9
	C78.7,40.9,71.6,85.8,71.6,85.8z"/>
<linearGradient id="SVGID_00000166653205504619965040000012622495195525196164_" gradientUnits="userSpaceOnUse" x1="18.4811" y1="60.7255" x2="75.5061" y2="12.0885" gradientTransform="matrix(1 0 0 -1 0 97.2756)">
	<stop  offset="0" style="stop-color:#FF661D"/>
	<stop  offset="0.5" style="stop-color:#CE3A00"/>
	<stop  offset="1" style="stop-color:#A60A5E"/>
</linearGradient>
<path style="fill-rule:evenodd;clip-rule:evenodd;fill:url(#SVGID_00000166653205504619965040000012622495195525196164_);" d="
	M46.3,47.3L46.6,37h-9.4l0.1,9.8c-1.6,0.4-3.2,1-4.7,1.8L32.3,37h-9.4l2.9,51.9h7.9l-0.3-11.2c1.3,0.7,2.7,1.2,4.2,1.5l0.1,9.8h7.6
	l0.2-10.1c1.3-0.4,2.5-0.9,3.7-1.6l-0.4,11.7h8.3L59.9,37h-9.4l-0.4,12.2C48.9,48.4,47.7,47.8,46.3,47.3L46.3,47.3z M62.4,88.2
	l3-0.8l5.8-48.5l-4.5-1.2C66.7,37.8,62.4,88.2,62.4,88.2z M67,87l2.3-0.6l7.8-45.8l-4.4-1.2L67,87z M53.5,63c0,7-5.6,12.6-12.6,12.6
	S28.3,69.9,28.3,63S34,50.4,40.9,50.4S53.5,56,53.5,63z M46.3,69.7l-1.7-5.5l4.1-3c0.2-0.1,0.2-0.4,0.1-0.5
	c-0.1-0.1-0.2-0.1-0.3-0.2c-1.7-0.1-3.5-0.2-5.2-0.3l-2.1-5.7c-0.1-0.2-0.3-0.3-0.5-0.2c-0.1,0-0.2,0.1-0.2,0.2l-2.1,5.7
	c-1.8,0-3.5,0.1-5.2,0.3c-0.2,0-0.4,0.2-0.4,0.4c0,0.1,0.1,0.2,0.2,0.3l4.1,3l-1.7,5.5c-0.1,0.2,0.1,0.4,0.3,0.5
	c0.1,0,0.2,0,0.3-0.1l4.8-3.3l4.8,3.3c0.2,0.1,0.4,0.1,0.5-0.1C46.4,70,46.4,69.9,46.3,69.7L46.3,69.7L46.3,69.7z"/>
<radialGradient id="SVGID_00000137127249191084751980000006254405214212425871_" cx="-237.5145" cy="547.1948" r="0.9995" gradientTransform="matrix(1.133717e-16 1.8515 1.8515 -1.133717e-16 -996.2112 520.53)" gradientUnits="userSpaceOnUse">
	<stop  offset="0.375" style="stop-color:#F9DDD1"/>
	<stop  offset="1" style="stop-color:#FFF3EB;stop-opacity:0"/>
</radialGradient>
<path style="opacity:0.4;fill:url(#SVGID_00000137127249191084751980000006254405214212425871_);enable-background:new    ;" d="
	M16.9,82.6c1.1,0,2-0.9,2-2c0-1.1-0.9-2-2-2c0,0,0,0,0,0c-1.1,0-2,0.9-2,2C15,81.7,15.8,82.6,16.9,82.6z"/>
<radialGradient id="SVGID_00000178900746597895181660000017581464643546400922_" cx="-237.5145" cy="547.1932" r="1.0003" gradientTransform="matrix(1.133717e-16 1.8515 1.8515 -1.133717e-16 -999.3583 522.8911)" gradientUnits="userSpaceOnUse">
	<stop  offset="0.375" style="stop-color:#F9DDD1"/>
	<stop  offset="1" style="stop-color:#FFF3EB;stop-opacity:0"/>
</radialGradient>
<path style="opacity:0.4;fill:url(#SVGID_00000178900746597895181660000017581464643546400922_);enable-background:new    ;" d="
	M13.8,85c1.1,0,2-0.9,2-2s-0.9-2-2-2s-2,0.9-2,2S12.7,85,13.8,85z"/>
<radialGradient id="SVGID_00000002386105564296557240000004558886145667800456_" cx="-237.5145" cy="547.1932" r="1.0003" gradientTransform="matrix(1.133717e-16 1.8515 1.8515 -1.133717e-16 -996.9973 522.89)" gradientUnits="userSpaceOnUse">
	<stop  offset="0.375" style="stop-color:#F9DDD1"/>
	<stop  offset="1" style="stop-color:#FFF3EB;stop-opacity:0"/>
</radialGradient>
<path style="opacity:0.4;fill:url(#SVGID_00000002386105564296557240000004558886145667800456_);enable-background:new    ;" d="
	M16.1,85c1.1,0,2-0.9,2-2s-0.9-2-2-2s-2,0.9-2,2S15,85,16.1,85z"/>
<radialGradient id="SVGID_00000175283979915420499150000002676695741932539013_" cx="-237.5137" cy="547.1959" r="0.9995" gradientTransform="matrix(1.133711e-16 1.8515 1.8515 -1.133711e-16 -993.8468 524.4613)" gradientUnits="userSpaceOnUse">
	<stop  offset="0.375" style="stop-color:#F9DDD1"/>
	<stop  offset="1" style="stop-color:#FFF3EB;stop-opacity:0"/>
</radialGradient>
<path style="opacity:0.4;fill:url(#SVGID_00000175283979915420499150000002676695741932539013_);enable-background:new    ;" d="
	M19.3,86.6c1.1,0,2-0.9,2-2c0-1.1-0.9-2-2-2c0,0,0,0,0,0c-1.1,0-2,0.9-2,2C17.3,85.7,18.2,86.6,19.3,86.6z"/>
<radialGradient id="SVGID_00000045593932598774202210000015861525406213687995_" cx="-237.5137" cy="547.1959" r="0.9995" gradientTransform="matrix(1.133711e-16 1.8515 1.8515 -1.133711e-16 -930.8958 523.6743)" gradientUnits="userSpaceOnUse">
	<stop  offset="0.375" style="stop-color:#F9DDD1"/>
	<stop  offset="1" style="stop-color:#FFF3EB;stop-opacity:0"/>
</radialGradient>
<path style="opacity:0.4;fill:url(#SVGID_00000045593932598774202210000015861525406213687995_);enable-background:new    ;" d="
	M82.2,85.8c1.1,0,2-0.9,2-2c0-1.1-0.9-2-2-2c0,0,0,0,0,0c-1.1,0-2,0.9-2,2C80.3,84.9,81.1,85.8,82.2,85.8z"/>
<radialGradient id="SVGID_00000127010443658875402490000004645213924308137611_" cx="-259.9287" cy="513.7074" r="1" gradientTransform="matrix(1.360460e-16 2.2218 2.2218 -1.360460e-16 -1059.5192 657.9097)" gradientUnits="userSpaceOnUse">
	<stop  offset="0.375" style="stop-color:#F9DDD1"/>
	<stop  offset="1" style="stop-color:#FFF3EB;stop-opacity:0"/>
</radialGradient>
<path style="opacity:0.4;fill:url(#SVGID_00000127010443658875402490000004645213924308137611_);enable-background:new    ;" d="
	M81.8,82.6c1.3,0,2.4-1.1,2.4-2.4c0-1.3-1.1-2.4-2.4-2.4s-2.4,1.1-2.4,2.4C79.5,81.6,80.5,82.6,81.8,82.6z"/>
<radialGradient id="SVGID_00000142145223689148652310000000342769860994444185_" cx="-259.9287" cy="513.7078" r="0.9998" gradientTransform="matrix(1.360460e-16 2.2218 2.2218 -1.360460e-16 -1063.4541 657.9106)" gradientUnits="userSpaceOnUse">
	<stop  offset="0.375" style="stop-color:#F9DDD1"/>
	<stop  offset="1" style="stop-color:#FFF3EB;stop-opacity:0"/>
</radialGradient>
<path style="opacity:0.4;fill:url(#SVGID_00000142145223689148652310000000342769860994444185_);enable-background:new    ;" d="
	M77.9,82.6c1.3,0,2.4-1.1,2.4-2.4c0-1.3-1.1-2.4-2.4-2.4s-2.4,1.1-2.4,2.4C75.5,81.6,76.6,82.6,77.9,82.6z"/>
<radialGradient id="SVGID_00000158715470369961544440000017162550793463031212_" cx="-275.9389" cy="489.7882" r="1.0002" gradientTransform="matrix(1.587204e-16 2.5921 2.5921 -1.587204e-16 -1194.433 794.5052)" gradientUnits="userSpaceOnUse">
	<stop  offset="0.375" style="stop-color:#F9DDD1"/>
	<stop  offset="1" style="stop-color:#FFF3EB;stop-opacity:0"/>
</radialGradient>
<path style="opacity:0.4;fill:url(#SVGID_00000158715470369961544440000017162550793463031212_);enable-background:new    ;" d="
	M75.1,81.8c1.5,0,2.8-1.2,2.8-2.8c0-1.5-1.2-2.8-2.8-2.8s-2.8,1.2-2.8,2.8C72.4,80.6,73.6,81.8,75.1,81.8z"/>
<radialGradient id="SVGID_00000111171347371001325020000010865051420328717201_" cx="-275.9389" cy="489.7886" r="1" gradientTransform="matrix(1.587204e-16 2.5921 2.5921 -1.587204e-16 -1251.0889 797.6532)" gradientUnits="userSpaceOnUse">
	<stop  offset="0.375" style="stop-color:#F9DDD1"/>
	<stop  offset="1" style="stop-color:#FFF3EB;stop-opacity:0"/>
</radialGradient>
<path style="opacity:0.4;fill:url(#SVGID_00000111171347371001325020000010865051420328717201_);enable-background:new    ;" d="
	M18.5,85c1.5,0,2.8-1.2,2.8-2.8s-1.2-2.8-2.8-2.8l0,0c-1.5,0-2.8,1.2-2.8,2.8S17,85,18.5,85z"/>
<radialGradient id="SVGID_00000115510132632820763050000007826812921404026289_" cx="-353.9601" cy="425.9452" r="1" gradientTransform="matrix(-1.9673 5.1147 5.1147 1.9673 -2798.5994 1057.0592)" gradientUnits="userSpaceOnUse">
	<stop  offset="0" style="stop-color:#FDF7F2"/>
	<stop  offset="1" style="stop-color:#FFD8BD"/>
</radialGradient>
<path style="fill-rule:evenodd;clip-rule:evenodd;fill:url(#SVGID_00000115510132632820763050000007826812921404026289_);" d="
	M74,79.5c1.3,0,2.4,1.1,2.4,2.4c1.7,0,3.1,1.4,3.1,3.1c0,1.7-1.4,3.1-3.1,3.1c-0.3,0-0.6,0-0.9-0.1c-0.4,1.3-1.7,2-2.9,1.6
	c-1.1-0.3-1.8-1.4-1.7-2.5c-1.4-0.6-2-2.3-1.3-3.7c0.4-0.8,1.2-1.4,2.1-1.6v0C71.6,80.5,72.7,79.5,74,79.5L74,79.5L74,79.5z"/>
</svg>
